<?xml version="1.0" encoding="UTF-8" standalone="no"?>
<svg
   xmlns:dc="http://purl.org/dc/elements/1.1/"
   xmlns:cc="http://creativecommons.org/ns#"
   xmlns:rdf="http://www.w3.org/1999/02/22-rdf-syntax-ns#"
   xmlns:svg="http://www.w3.org/2000/svg"
   xmlns="http://www.w3.org/2000/svg"
   viewBox="0 0 800 800"
   height="800"
   width="800"
   xml:space="preserve"
   id="svg2"
   version="1.1"><metadata
     id="metadata8"><rdf:RDF><cc:Work
         rdf:about=""><dc:format>image/svg+xml</dc:format><dc:type
           rdf:resource="http://purl.org/dc/dcmitype/StillImage" /></cc:Work></rdf:RDF></metadata><defs
     id="defs6"><clipPath
       id="clipPath18"
       clipPathUnits="userSpaceOnUse"><path
         id="path16"
         d="M 0,600 H 600 V 0 H 0 Z" /></clipPath></defs><g
     transform="matrix(1.3333333,0,0,-1.3333333,0,800)"
     id="g10"><g
       id="g12"><g
         clip-path="url(#clipPath18)"
         id="g14"><g
           transform="translate(443.9265,347.2579)"
           id="g20"><path
             id="path22"
             style="fill:#2b2b2a;fill-opacity:1;fill-rule:nonzero;stroke:none"
             d="m 0,0 c -0.501,1.565 -0.747,3.131 -1.467,4.435 -2.431,4.401 -1.433,8.389 1.101,12.303 11.374,17.57 22.739,35.147 34.116,52.715 0.102,0.157 0.334,0.229 1.261,0.834 C 33.417,66.735 32.464,63.622 30.762,60.994 23.54,49.835 16.096,38.82 8.73,27.755 8.125,26.847 7.574,25.887 6.861,25.07 4.067,21.866 3.331,18.516 4.683,14.261 6.111,9.767 4.375,5.567 0,0" /></g><g
           transform="translate(462.1541,400.7368)"
           id="g24"><path
             id="path26"
             style="fill:#2b2b2a;fill-opacity:1;fill-rule:nonzero;stroke:none"
             d="m 0,0 c -2.648,-5.658 -5.005,-11.476 -8.009,-16.937 -4.882,-8.875 -10.258,-17.478 -15.23,-26.306 -0.64,-1.135 -0.654,-3.206 -0.045,-4.364 3.77,-7.175 3.42,-11.03 -2.05,-17.479 -0.669,1.546 -1.136,3.216 -2.04,4.601 -2.838,4.345 -2.598,8.642 -0.11,12.961 7.019,12.181 14.128,24.31 21.07,36.533 2.083,3.667 3.736,7.579 5.586,11.378 C -0.552,0.258 -0.276,0.129 0,0" /></g><g
           transform="translate(461.3097,351.3679)"
           id="g28"><path
             id="path30"
             style="fill:#2b2b2a;fill-opacity:1;fill-rule:nonzero;stroke:none"
             d="m 0,0 c -3.903,-4.827 -9.403,-5.205 -15.309,-5.328 2.56,5.344 6,9.409 12.226,9.854 3.205,0.229 5.3,1.52 7.215,4.139 7.15,9.782 14.367,19.572 23.822,27.321 3.815,3.127 8.1,5.681 12.17,8.496 0.256,-0.349 0.511,-0.698 0.767,-1.048 -0.839,-0.53 -1.704,-1.023 -2.514,-1.595 C 22.796,30.828 11.013,16.275 0.186,0.836 0.008,0.583 -0.022,0.226 -0.121,-0.082 Z" /></g><g
           transform="translate(461.1886,351.286)"
           id="g32"><path
             id="path34"
             style="fill:#2b2b2a;fill-opacity:1;fill-rule:nonzero;stroke:none"
             d="m 0,0 c 0.834,0.775 1.782,1.459 2.484,2.34 6.059,7.6 12.224,15.091 20.359,20.637 1.348,0.919 2.765,1.74 4.166,2.58 0.327,0.196 0.718,0.282 0.754,0.296 C 22.873,21.324 17.41,16.99 12.842,11.86 6.259,4.467 0.249,-3.445 -5.85,-11.257 c -2.938,-3.762 -6.47,-5.639 -11.284,-5.157 -1.597,0.16 -3.24,-0.144 -4.833,-0.234 0.738,5.313 5.859,9.644 11.223,9.356 5.992,-0.322 8.331,1.265 10.869,7.376 C 0.121,0.082 0,0 0,0" /></g><g
           transform="translate(498.9608,432.6197)"
           id="g36"><path
             id="path38"
             style="fill:#2b2b2a;fill-opacity:1;fill-rule:nonzero;stroke:none"
             d="M 0,0 C -13.721,-24.433 -33.783,-44.242 -49.218,-67.423 -34.378,-43.813 -17.041,-22.01 0,0" /></g><g
           transform="translate(515.044,415.1009)"
           id="g40"><path
             id="path42"
             style="fill:#2b2b2a;fill-opacity:1;fill-rule:nonzero;stroke:none"
             d="M 0,0 C -21.923,-15.634 -38.944,-36 -55.088,-57.219 -39.519,-35.454 -24.273,-13.379 0,0" /></g><g
           transform="translate(429.4801,344.4669)"
           id="g44"><path
             id="path46"
             style="fill:#2b2b2a;fill-opacity:1;fill-rule:nonzero;stroke:none"
             d="M 0,0 C 6.396,-9.073 6.482,-11.885 0.773,-20.316 -5.154,-11.604 -5.346,-7.39 0,0" /></g><g
           transform="translate(449.9027,332.3406)"
           id="g48"><path
             id="path50"
             style="fill:#2b2b2a;fill-opacity:1;fill-rule:nonzero;stroke:none"
             d="M 0,0 C -2.824,-9.303 -10.573,-8.948 -17.736,-9.232 -15.908,-1.717 -12.043,0.39 0,0" /></g><g
           transform="translate(422.4825,333.2492)"
           id="g52"><path
             id="path54"
             style="fill:#2b2b2a;fill-opacity:1;fill-rule:nonzero;stroke:none"
             d="M 0,0 C 6.344,-10.449 6.388,-14.344 0.624,-21.042 -0.2,-16.344 -4.872,-12.849 -3.289,-7.611 -2.552,-5.171 -1.273,-2.894 0,0" /></g><g
           transform="translate(416.4245,321.912)"
           id="g56"><path
             id="path58"
             style="fill:#2b2b2a;fill-opacity:1;fill-rule:nonzero;stroke:none"
             d="M 0,0 C 6.344,-10.449 6.388,-14.344 0.624,-21.042 -0.2,-16.344 -4.872,-12.849 -3.289,-7.611 -2.552,-5.171 -1.273,-2.894 0,0" /></g><g
           transform="translate(442.916,320.9113)"
           id="g60"><path
             id="path62"
             style="fill:#2b2b2a;fill-opacity:1;fill-rule:nonzero;stroke:none"
             d="m 0,0 c -2.511,-6.4 -5.812,-8.741 -12.374,-8.99 -1.704,-0.064 -3.392,-0.527 -5.002,-0.793 C -15.588,-1.596 -9.679,1.799 0,0" /></g><g
           transform="translate(451.1992,356.1545)"
           id="g64"><path
             id="path66"
             style="fill:#2b2b2a;fill-opacity:1;fill-rule:nonzero;stroke:none"
             d="M 0,0 C -0.689,8.348 2.612,13.846 10.833,15.897 11.952,7.355 7.994,2.127 0,0" /></g><g
           transform="translate(436.1037,309.4508)"
           id="g68"><path
             id="path70"
             style="fill:#2b2b2a;fill-opacity:1;fill-rule:nonzero;stroke:none"
             d="M 0,0 C -3.954,-7.269 -3.954,-7.269 -16.224,-8.912 -14.332,-1.366 -10.279,0.899 0,0" /></g><g
           transform="translate(514.3063,255.6522)"
           id="g72"><path
             id="path74"
             style="fill:#2b2b2a;fill-opacity:1;fill-rule:nonzero;stroke:none"
             d="m 0,0 c -22.205,34.606 -60.777,38.21 -88.211,25.602 6.277,6.752 13.093,12.893 21.191,17.549 5.506,3.166 11.251,5.914 16.368,8.58 C -57.89,51.546 -69.68,45.424 -76.619,40.428 -84.57,34.703 -91.354,28.04 -97.193,20.633 c -4.978,-3.28 -9.363,-7.16 -12.93,-11.513 l 7.056,18.834 0.01,-0.029 c 2.227,5.119 4.773,8.712 10.905,9.035 4.007,0.211 6.381,3.09 7.672,6.77 -4.606,-0.757 -8.955,-1.473 -13.243,-2.178 -1.84,4.123 -3.676,8.235 -5.469,12.254 -2.971,-4.353 -3.415,-6.731 -0.729,-11.657 2.186,-4.009 0.88,-9.05 0.131,-11.914 -0.524,-2 -5.762,-13.091 -10.33,-26.77 -4.927,-8.18 -7.113,-17.628 -5.349,-27.708 0.047,0.06 0.098,0.128 0.146,0.19 l -0.065,-0.189 c 0.043,0.091 0.086,0.181 0.128,0.272 7.81,10.17 25.089,36.408 45.956,41.277 23.483,5.481 44.182,-1.246 57.151,-22.922 32.082,-53.624 -36.321,-111.363 -86.51,-106.513 -46.612,4.504 -67.576,31.541 -85.176,71.871 -28.49,65.282 21.591,197.803 -1.428,197.803 -36.293,0 -57.288,-186.607 -64.95,-186.201 -7.663,0.406 -13.147,62.845 -17.307,93.835 -2.932,21.847 -7.621,86.855 -18.135,86.089 -10.488,-0.763 2.353,-120.199 2.58,-136.123 0.515,-36.066 1.084,-106.88 -49.318,-110.682 l -0.009,-0.058 c -38.08,-2.866 -78.17,56.339 -68.365,92.51 12.582,46.412 63.239,4.635 72.269,-35.405 19.699,30.471 -5.415,100.447 -48.377,85.92 -39.534,-13.367 -42.082,-69.843 -31.075,-102.482 10.078,-29.886 36.793,-67.549 72.447,-59.889 l 0.009,0.059 c 39.873,6.732 53.845,53.775 59.284,92.756 30.193,-60.149 50.272,41.015 59.218,70.358 6.549,-51.248 22.287,-138.908 74.528,-160.817 C -56.083,-150.489 38.955,-60.711 0,0" /></g><g
           transform="translate(557.4346,299.458)"
           id="g76"><path
             id="path78"
             style="fill:#2b2b2a;fill-opacity:1;fill-rule:nonzero;stroke:none"
             d="M 0,0 C -1.338,152.205 -136.403,272.764 -286.656,250.444 -380.437,236.513 -460.699,168.761 -489.929,78.793 -530.423,-45.843 -466.9,-185.188 -344.312,-234.736 -180.933,-300.771 -1.513,-176.637 0,0 m 6.381,-0.03 c -0.829,-271.039 -371.113,-362.398 -499.656,-128.625 -97.344,177.034 38.779,402.644 242.8,394.908 C -109.407,260.904 5.981,141.046 6.381,-0.03" /></g><g
           transform="translate(143.8628,451.4056)"
           id="g80"><path
             id="path82"
             style="fill:#2b2b2a;fill-opacity:1;fill-rule:nonzero;stroke:none"
             d="m 0,0 v -17.762 h 9.074 c 2.51,0 4.472,0.779 5.885,2.336 1.414,1.557 2.121,3.743 2.121,6.56 0,2.618 -0.628,4.75 -1.883,6.396 C 13.941,-0.823 12.088,0 9.637,0 Z m 0,3.024 h 8.421 c 2.234,0.06 3.983,0.777 5.248,2.154 1.266,1.376 1.898,3.351 1.898,5.926 0,2.694 -0.707,4.723 -2.12,6.09 -1.413,1.367 -3.465,2.05 -6.153,2.05 H 0 Z m -3.558,-23.81 V 22.387 H 7.294 c 3.717,0 6.623,-0.95 8.718,-2.85 2.095,-1.899 3.143,-4.748 3.143,-8.547 0,-2.177 -0.544,-4.081 -1.631,-5.713 -1.087,-1.631 -2.53,-2.774 -4.329,-3.427 2.234,-0.454 4.033,-1.679 5.397,-3.674 1.364,-1.995 2.046,-4.317 2.046,-6.963 0,-3.871 -1.043,-6.839 -3.128,-8.903 -2.086,-2.064 -4.898,-3.096 -8.436,-3.096 z" /></g><g
           transform="translate(194.1523,458.3138)"
           id="g84"><path
             id="path86"
             style="fill:#2b2b2a;fill-opacity:1;fill-rule:nonzero;stroke:none"
             d="m 0,0 c 0,4.271 -0.88,7.482 -2.639,9.638 -1.759,2.154 -4.28,3.231 -7.561,3.231 -3.183,0 -5.624,-1.077 -7.324,-3.231 -1.701,-2.156 -2.55,-5.367 -2.55,-9.638 v -12.187 c 0,-4.329 0.849,-7.571 2.55,-9.725 1.7,-2.155 4.151,-3.233 7.354,-3.233 3.281,0 5.796,1.078 7.546,3.233 1.749,2.154 2.624,5.396 2.624,9.725 z m 3.528,-12.187 c 0,-5.238 -1.22,-9.236 -3.662,-11.994 -2.441,-2.757 -5.787,-4.136 -10.036,-4.136 -4.172,0 -7.448,1.379 -9.83,4.136 -2.382,2.758 -3.573,6.756 -3.573,11.994 v 12.098 c 0,5.238 1.186,9.246 3.558,12.025 2.372,2.776 5.644,4.166 9.815,4.166 4.25,0 7.6,-1.394 10.052,-4.182 C 2.303,9.133 3.528,5.13 3.528,-0.089 Z" /></g><g
           transform="translate(230.001,473.7923)"
           id="g88"><path
             id="path90"
             style="fill:#2b2b2a;fill-opacity:1;fill-rule:nonzero;stroke:none"
             d="m 0,0 v -30.215 c 0,-4.408 -1.177,-7.774 -3.528,-10.097 -2.353,-2.323 -5.417,-3.484 -9.193,-3.484 -3.696,0 -6.691,1.161 -8.984,3.484 -2.293,2.323 -3.44,5.689 -3.44,10.097 V 0 h 3.499 v -30.259 c 0,-3.386 0.826,-5.984 2.476,-7.796 1.65,-1.811 3.8,-2.716 6.449,-2.716 2.787,0 5.016,0.866 6.687,2.598 1.67,1.732 2.506,4.37 2.506,7.914 l 0,30.259 z" /></g><g
           transform="translate(242.4258,433.6439)"
           id="g92"><path
             id="path94"
             style="fill:#2b2b2a;fill-opacity:1;fill-rule:nonzero;stroke:none"
             d="M 0,0 H 17.435 V -3.024 H -3.588 V 40.148 H 0 Z" /></g><g
           transform="translate(271.2168,445.8607)"
           id="g96"><path
             id="path98"
             style="fill:#2b2b2a;fill-opacity:1;fill-rule:nonzero;stroke:none"
             d="M 0,0 H 13.759 L 6.998,22.209 H 6.82 Z M 14.737,-3.262 H -1.008 L -4.685,-15.241 H -8.361 L 5.308,27.932 H 8.54 l 13.522,-43.173 h -3.678 z" /></g><g
           transform="translate(325.7764,430.6195)"
           id="g100"><path
             id="path102"
             style="fill:#2b2b2a;fill-opacity:1;fill-rule:nonzero;stroke:none"
             d="m 0,0 h -3.559 l -19.273,36.146 -0.178,-0.03 V 0 h -3.588 v 43.173 h 3.588 L -3.736,7.027 -3.559,7.057 V 43.173 H 0 Z" /></g><g
           transform="translate(361.1797,436.4906)"
           id="g104"><path
             id="path106"
             style="fill:#2b2b2a;fill-opacity:1;fill-rule:nonzero;stroke:none"
             d="m 0,0 c -0.791,-1.621 -2.249,-3.108 -4.373,-4.463 -2.126,-1.353 -4.829,-2.031 -8.11,-2.031 -4.329,0 -7.813,1.374 -10.453,4.122 -2.638,2.747 -3.958,6.691 -3.958,11.831 v 12.839 c 0,5.041 1.246,8.905 3.736,11.594 2.491,2.688 5.822,4.033 9.993,4.033 4.072,0 7.225,-1.064 9.459,-3.188 2.233,-2.126 3.399,-5.086 3.499,-8.881 l -0.06,-0.177 h -3.321 c -0.118,2.905 -0.969,5.148 -2.55,6.73 -1.582,1.581 -3.924,2.372 -7.027,2.372 -3.144,0 -5.624,-1.064 -7.442,-3.192 -1.82,-2.129 -2.729,-5.212 -2.729,-9.251 V 9.42 c 0,-4.198 0.979,-7.396 2.936,-9.593 1.957,-2.198 4.596,-3.297 7.917,-3.297 2.431,0 4.379,0.437 5.841,1.31 1.463,0.873 2.481,1.934 3.054,3.185 v 11.25 h -8.954 V 15.39 L 0,15.39 Z" /></g><g
           transform="translate(391.3652,451.4945)"
           id="g108"><path
             id="path110"
             style="fill:#2b2b2a;fill-opacity:1;fill-rule:nonzero;stroke:none"
             d="M 0,0 H -16.961 V -17.851 H 2.521 v -3.024 h -23.04 V 22.298 H 2.343 V 19.155 H -16.961 V 3.024 L 0,3.024 Z" /></g><g
           transform="translate(404.0264,453.1849)"
           id="g112"><path
             id="path114"
             style="fill:#2b2b2a;fill-opacity:1;fill-rule:nonzero;stroke:none"
             d="m 0,0 h 8.422 c 3.044,0 5.272,0.775 6.686,2.327 1.413,1.552 2.121,3.662 2.121,6.331 0,2.826 -0.693,5.001 -2.077,6.524 -1.383,1.521 -3.489,2.283 -6.315,2.283 l -8.837,0 z m 0,-3.025 v -19.54 H -3.558 V 20.578 H 8.837 c 3.874,0 6.839,-1.017 8.895,-3.051 2.056,-2.033 3.084,-4.995 3.084,-8.883 0,-2.291 -0.544,-4.33 -1.63,-6.117 -1.088,-1.786 -2.63,-3.104 -4.626,-3.953 2.194,-0.673 3.77,-1.881 4.729,-3.622 0.958,-1.742 1.438,-3.91 1.438,-6.502 v -4.067 c 0,-1.347 0.128,-2.555 0.385,-3.623 0.257,-1.07 0.693,-1.94 1.305,-2.613 v -0.712 h -3.646 c -0.614,0.713 -1.034,1.705 -1.261,2.973 -0.228,1.27 -0.341,2.617 -0.341,4.046 v 3.955 c 0,2.617 -0.663,4.699 -1.986,6.246 -1.326,1.547 -3.144,2.32 -5.456,2.32 z" /></g><path
           id="path116"
           style="fill:#2b2b2a;fill-opacity:1;fill-rule:nonzero;stroke:none"
           d="m 438.334,430.619 h -3.588 v 43.173 h 3.588 z" /><g
           transform="translate(469.1123,451.4945)"
           id="g118"><path
             id="path120"
             style="fill:#2b2b2a;fill-opacity:1;fill-rule:nonzero;stroke:none"
             d="M 0,0 H -16.961 V -17.851 H 2.521 v -3.024 h -23.04 V 22.298 H 2.343 V 19.155 H -16.961 V 3.024 L 0,3.024 Z" /></g></g></g></g></svg>